#!OML:ASF H:\Terrain\Patient Classification 1\Animal1\Tuesday\Animal1.ASF
:FULLY-SPECIFIED
:DEGREES
1504
root 11.2414 16.2737 -9.06298 6.2974 -6.27789 -1.05555
lowerback 0.381154 0.414385 -0.0311404
upperback -6.29864 0.603446 0.994308
thorax -6.77011 0.329833 1.01649
lowerneck -8.12041 0.00308832 -7.38883
upperneck 17.1953 -0.552805 9.42986
head 6.57575 0.019164 4.2395
rclavicle 5.96354e-016 -1.35174e-014
rhumerus -16.48 16.3516 -87.35
rradius 122.736
rwrist 17.6721
rhand 46.8973 -7.57855
rfingers 7.12502
rthumb 67.8015 -369.269
lclavicle 5.96354e-016 -1.35174e-014
lhumerus -31.8476 -25.681 97.5717
lradius 130.267
lwrist -44.047
lhand 54.5472 65.8697
lfingers 7.12502
lthumb 72.5994 50.8024
rfemur -24.4012 9.83375 17.3606
rtibia 33.6634
rfoot -9.30882 -22.876
rtoes -2.08199
lfemur -10.2683 -8.69188 -13.6281
ltibia 27.6577
lfoot -21.6552 17.2314
ltoes -2.65061
1505
root 11.2351 16.3262 -8.97519 6.61654 -5.9654 -1.09452
lowerback -0.936322 0.493544 0.172522
upperback -6.76949 0.711206 1.00726
thorax -6.51286 0.372686 0.918827
lowerneck -8.08496 -0.109225 -7.58592
upperneck 16.5754 -0.635815 9.39418
head 6.38176 -0.0382675 4.24009
rclavicle -1.49089e-016 9.93923e-016
rhumerus -18.7676 17.2947 -88.3335
rradius 122.606
rwrist 17.8355
rhand 49.2843 -9.44741
rfingers 7.12502
rthumb 69.4763 -366.784
lclavicle -1.49089e-016 9.93923e-016
lhumerus -31.1958 -26.2272 97.124
lradius 131.901
lwrist -43.1681
lhand 54.386 64.699
lfingers 7.12502
lthumb 72.5185 50.0754
rfemur -23.6209 10.7249 17.3282
rtibia 32.4709
rfoot -9.23504 -23.869
rtoes -1.06665
lfemur -9.19749 -9.7705 -13.6392
ltibia 25.5173
lfoot -20.9299 17.931
ltoes -2.87531
1506
root 11.2235 16.3726 -8.89377 6.98553 -5.52804 -1.12985
lowerback -2.21575 0.548213 0.290184
upperback -7.32988 0.782107 1.04652
thorax -6.37756 0.403336 0.901097
lowerneck -7.80494 -0.16732 -7.94749
upperneck 15.9134 -0.669829 9.57079
head 6.1277 -0.070665 4.33966
rclavicle -2.6339e-015 -1.59028e-015
rhumerus -21.2842 18.0905 -89.5881
rradius 122.163
rwrist 17.8854
rhand 50.9413 -10.0664
rfingers 7.12502
rthumb 70.5553 -363.943
lclavicle -2.6339e-015 -1.59028e-015
lhumerus -30.3027 -26.3544 96.5089
lradius 133.138
lwrist -41.813
lhand 54.6044 63.3375
lfingers 7.12502
lthumb 72.6279 48.1117
rfemur -22.88 11.5628 17.3152
rtibia 31.2431
rfoot -9.3038 -24.9413
rtoes 0.410515
lfemur -8.32965 -10.8185 -13.589
ltibia 23.5039
lfoot -20.0822 18.7402
ltoes -4.63396
1507
root 11.2085 16.4198 -8.81774 7.32431 -4.92617 -1.13517
lowerback -3.41607 0.563433 0.316632
upperback -7.83208 0.792106 0.975651
thorax -6.22763 0.405308 0.822485
lowerneck -7.71643 -0.239403 -7.93328
upperneck 15.2637 -0.757984 9.7027
head 5.91737 -0.106362 4.35903
rclavicle -9.0447e-015 -4.17448e-015
rhumerus -23.3915 18.3762 -90.7971
rradius 121.479
rwrist 17.5156
rhand 52.5642 -10.0322
rfingers 7.12502
rthumb 71.5323 -360.134
lclavicle -9.0447e-015 -4.17448e-015
lhumerus -29.0886 -26.5208 95.453
lradius 134.372
lwrist -39.564
lhand 54.2576 63.2619
lfingers 7.12502
lthumb 72.4532 48.9887
rfemur -22.0906 12.5009 17.276
rtibia 29.9363
rfoot -9.24693 -26.3177
rtoes 0.66737
lfemur -7.63209 -12.2635 -13.5211
ltibia 21.7596
lfoot -19.3857 19.4911
ltoes -4.4025
1508
root 11.1955 16.4595 -8.74518 7.51837 -4.24661 -1.53327
lowerback -4.45139 0.596503 0.743232
upperback -8.22024 0.823296 0.867222
thorax -6.04728 0.392443 0.480071
lowerneck -7.74194 -0.345907 -7.33652
upperneck 14.5971 -0.934027 9.63539
head 5.72971 -0.165699 4.20982
rclavicle 4.96962e-017 -1.56046e-014
rhumerus -25.2522 18.2439 -91.9819
rradius 120.966
rwrist 16.5941
rhand 54.9841 -10.4838
rfingers 7.12502
rthumb 72.8134 -354.193
lclavicle 4.96962e-017 -1.56046e-014
lhumerus -27.7153 -26.6831 94.0591
lradius 135.233
lwrist -37.9177
lhand 54.9263 65.5344
lfingers 7.12502
lthumb 72.7856 49.4072
rfemur -21.1036 13.6929 17.6777
rtibia 28.6
rfoot -9.26181 -27.9601
rtoes 1.7343
lfemur -6.84603 -13.8624 -13.0401
ltibia 20.2282
lfoot -18.9307 20.2466
ltoes -3.72752
1509
root 11.1838 16.4814 -8.67958 7.57583 -3.62889 -1.96267
lowerback -5.37814 0.624773 1.25292
upperback -8.45079 0.839242 0.759657
thorax -5.76166 0.367457 0.0924394
lowerneck -7.89714 -0.46425 -6.71634
upperneck 13.7968 -1.10081 9.4885
head 5.52201 -0.226036 4.03164
rclavicle 1.22439e-014 2.43511e-014
rhumerus -26.6841 18.1561 -93.1177
rradius 120.517
rwrist 15.0576
rhand 56.441 -11.4091
rfingers 7.12502
rthumb 73.4653 -350.817
lclavicle 1.22439e-014 2.43511e-014
lhumerus -26.0379 -26.7977 92.6173
lradius 135.992
lwrist -35.8257
lhand 55.1827 69.6752
lfingers 7.12502
lthumb 72.9079 52.8181
rfemur -20.0511 15.1135 18.1014
rtibia 27.3443
rfoot -9.72 -29.5139
rtoes 5.57547
lfemur -5.95309 -15.349 -12.569
ltibia 18.7777
lfoot -18.5378 21.1877
ltoes -4.41998
1510
root 11.1754 16.5031 -8.62153 7.67813 -2.96154 -2.09102
lowerback -6.25056 0.744385 1.53256
upperback -8.83544 0.969302 0.441492
thorax -5.67313 0.404584 -0.385074
lowerneck -7.35308 -0.674535 -5.838
upperneck 12.7239 -1.41593 9.16634
head 5.11943 -0.380707 3.73982
rclavicle -9.08197e-015 -1.09829e-014
rhumerus -27.9406 17.4973 -94.0318
rradius 120.134
rwrist 13.728
rhand 56.9542 -12.6519
rfingers 7.12502
rthumb 73.6709 -350.465
lclavicle -9.08197e-015 -1.09829e-014
lhumerus -24.6451 -27.3799 91.4515
lradius 136.279
lwrist -34.0861
lhand 55.3928 73.2767
lfingers 7.12502
lthumb 73.0061 55.8135
rfemur -19.1784 16.4194 18.1873
rtibia 26.2234
rfoot -10.6868 -30.8643
rtoes 9.06587
lfemur -5.23972 -17.0084 -12.405
ltibia 17.4058
lfoot -18.2291 22.194
ltoes -4.23845
1511
root 11.1707 16.5268 -8.56601 7.75492 -2.30421 -1.87543
lowerback -6.75517 1.06767 1.42085
upperback -9.76802 1.37962 -0.180687
thorax -6.37939 0.584594 -0.966857
lowerneck -5.32656 -0.997327 -4.64157
upperneck 11.645 -1.96811 8.99398
head 4.47648 -0.669465 3.43627
rclavicle -8.44835e-016 -6.36111e-015
rhumerus -30.1348 15.7016 -94.8754
rradius 120.172
rwrist 13.3428
rhand 58.3047 -13.1851
rfingers 7.12502
rthumb 74.1469 -346.616
lclavicle -8.44835e-016 -6.36111e-015
lhumerus -24.6942 -28.8007 91.1921
lradius 136.492
lwrist -33.0561
lhand 56.2467 76.4729
lfingers 7.12502
lthumb 73.3841 56.4741
rfemur -18.364 17.4456 17.9378
rtibia 25.2331
rfoot -11.5484 -32.1373
rtoes 11.2245
lfemur -4.54783 -19.0053 -12.6586
ltibia 16.1078
lfoot -18.0947 23.3722
ltoes -3.05697
1512
root 11.1653 16.5392 -8.50881 7.65658 -1.85295 -1.61065
lowerback -7.02304 1.05841 1.00537
upperback -10.5693 1.37225 -0.325416
thorax -7.11186 0.595291 -0.892326
lowerneck -4.23795 -0.997476 -4.48124
upperneck 11.3641 -2.02398 9.26737
head 4.21062 -0.70615 3.4909
rclavicle -9.74045e-015 1.78906e-015
rhumerus -31.8449 15.0081 -95.3682
rradius 120.338
rwrist 12.9939
rhand 60.3491 -12.997
rfingers 7.12502
rthumb 74.6732 -339.341
lclavicle -9.74045e-015 1.78906e-015
lhumerus -24.8934 -28.9983 91.1398
lradius 136.647
lwrist -32.7766
lhand 57.6068 79.2233
lfingers 7.12502
lthumb 73.9129 54.9519
rfemur -17.4661 18.4174 17.7106
rtibia 24.4375
rfoot -11.9913 -33.3325
rtoes 12.9994
lfemur -3.52458 -21.0081 -13.1221
ltibia 14.775
lfoot -17.9283 24.8598
ltoes -2.44275
1513
root 11.1639 16.5476 -8.4517 7.53427 -1.45523 -1.79873
lowerback -7.53862 0.604227 0.923408
upperback -10.7071 0.787012 0.193557
thorax -6.99333 0.33245 -0.30182
lowerneck -5.09307 -0.68538 -4.91647
upperneck 11.4427 -1.54195 9.26858
head 4.34726 -0.464985 3.58953
rclavicle 3.52843e-015 -1.59028e-015
rhumerus -31.5894 15.9134 -95.2485
rradius 120.269
rwrist 12.458
rhand 60.9979 -11.7996
rfingers 7.12502
rthumb 74.7878 -335.804
lclavicle 3.52843e-015 -1.59028e-015
lhumerus -24.0246 -27.6262 90.4336
lradius 136.658
lwrist -33.0132
lhand 59.1451 81.4595
lfingers 7.12502
lthumb 74.3927 52.0363
rfemur -16.6196 19.5476 17.9866
rtibia 23.8285
rfoot -12.8256 -34.3844
rtoes 14.9286
lfemur -2.35475 -22.8518 -13.1588
ltibia 13.3318
lfoot -18.1325 26.1813
ltoes 0.0123278
